<?xml version="1.0" encoding="utf-8"?>
<!-- Generator: Adobe Illustrator 23.0.3, SVG Export Plug-In . SVG Version: 6.00 Build 0)  -->
<svg version="1.1" id="Layer_1" xmlns="http://www.w3.org/2000/svg" xmlns:xlink="http://www.w3.org/1999/xlink" x="0px" y="0px"
	 viewBox="0 0 122.9 117.8" style="enable-background:new 0 0 122.9 117.8;" xml:space="preserve">
<style type="text/css">
	.st0{fill-rule:evenodd;clip-rule:evenodd;}
</style>
<g>
	<path class="st0" d="M122.8,16.5L122.8,16.5c0,2.9-4.4,5.2-9.8,5.2H92.2c1.5-1.6,2.3-3.3,2.3-5.2c0-1.9-0.9-3.7-2.4-5.3H113
		C118.4,11.2,122.8,13.6,122.8,16.5L122.8,16.5z M89.3,101.3c0,9.2-7.4,16.6-16.6,16.6s-16.6-7.4-16.6-16.6
		c0-9.1,7.4-16.6,16.6-16.6S89.3,92.1,89.3,101.3L89.3,101.3z M122.9,101.1L122.9,101.1c0,2.9-4.4,5.2-9.8,5.2H92.2
		c1.5-1.6,2.3-3.3,2.3-5.2c0-1.9-0.9-3.7-2.4-5.3h21C118.5,95.9,122.9,98.3,122.9,101.1L122.9,101.1z M53.3,106.4H9.8
		c-5.4,0-9.8-2.3-9.8-5.2l0,0c0-2.9,4.4-5.2,9.8-5.2h43.6c-1.5,1.6-2.4,3.4-2.4,5.3C51,103.1,51.8,104.8,53.3,106.4L53.3,106.4z
		 M28.3,58.7c0,9.1,7.4,16.6,16.6,16.6c9.1,0,16.6-7.4,16.6-16.6c0-9.2-7.4-16.6-16.6-16.6C35.7,42.1,28.3,49.6,28.3,58.7L28.3,58.7
		z M0,58.6L0,58.6c0,2.9,4.4,5.2,9.8,5.2h15.7c-1.5-1.6-2.3-3.3-2.3-5.2c0-1.9,0.9-3.7,2.4-5.3H9.8C4.4,53.4,0,55.7,0,58.6L0,58.6z
		 M64.4,63.8h48.7c5.4,0,9.8-2.3,9.8-5.2l0,0c0-2.9-4.4-5.2-9.8-5.2H64.3c1.5,1.6,2.4,3.4,2.4,5.3C66.7,60.5,65.9,62.3,64.4,63.8
		L64.4,63.8z M89.3,16.6c0,9.1-7.4,16.6-16.6,16.6s-16.6-7.4-16.6-16.6C56.2,7.4,63.6,0,72.7,0S89.3,7.4,89.3,16.6L89.3,16.6z
		 M53.3,21.7H9.9c-5.4,0-9.8-2.3-9.8-5.2l0,0c0-2.9,4.4-5.2,9.8-5.2h43.5c-1.5,1.6-2.4,3.4-2.4,5.3C51,18.4,51.8,20.1,53.3,21.7
		L53.3,21.7z"/>
</g>
</svg>
