<?xml version="1.0" encoding="utf-8"?>
<!-- Generator: Adobe Illustrator 23.0.3, SVG Export Plug-In . SVG Version: 6.00 Build 0)  -->
<svg version="1.1" id="Layer_1" xmlns="http://www.w3.org/2000/svg" xmlns:xlink="http://www.w3.org/1999/xlink" x="0px" y="0px"
	 viewBox="0 0 122.9 112.5" style="enable-background:new 0 0 122.9 112.5;" xml:space="preserve">
<style type="text/css">
	.st0{fill-rule:evenodd;clip-rule:evenodd;}
</style>
<g>
	<path class="st0" d="M12.6,87.4c6.9,0,12.6,5.6,12.6,12.6c0,6.9-5.6,12.6-12.6,12.6C5.6,112.5,0,106.9,0,99.9
		C0,93,5.6,87.4,12.6,87.4L12.6,87.4z M35.1,94.4h86.4c0.8,0,1.4,0.3,1.4,0.7v9.1c0,0.4-0.6,0.7-1.4,0.7H35.1
		c-0.8,0-1.4-0.3-1.4-0.7v-9.1C33.6,94.7,34.3,94.4,35.1,94.4L35.1,94.4z M35.1,50.9h86.4c0.8,0,1.4,0.3,1.4,0.7v9.1
		c0,0.4-0.6,0.7-1.4,0.7H35.1c-0.8,0-1.4-0.3-1.4-0.7v-9.1C33.6,51.2,34.3,50.9,35.1,50.9L35.1,50.9z M35.1,7.3h86.4
		c0.8,0,1.4,0.3,1.4,0.7v9.1c0,0.4-0.6,0.7-1.4,0.7H35.1c-0.8,0-1.4-0.3-1.4-0.7V8C33.6,7.6,34.3,7.3,35.1,7.3L35.1,7.3z M12.6,43.7
		c6.9,0,12.6,5.6,12.6,12.6c0,6.9-5.6,12.6-12.6,12.6S0,63.2,0,56.3C0,49.3,5.6,43.7,12.6,43.7L12.6,43.7z M12.6,0
		c6.9,0,12.6,5.6,12.6,12.6c0,6.9-5.6,12.6-12.6,12.6C5.6,25.1,0,19.5,0,12.6C0,5.6,5.6,0,12.6,0L12.6,0z"/>
</g>
</svg>
