<?xml version="1.0" encoding="utf-8"?><svg version="1.1" id="Layer_1" xmlns="http://www.w3.org/2000/svg" xmlns:xlink="http://www.w3.org/1999/xlink" x="0px" y="0px" viewBox="0 0 122.88 116.72" style="enable-background:new 0 0 122.88 116.72" xml:space="preserve"><g><path d="M71.91,21.68v0.02c7.21,0,13.88,2.31,19.32,6.21L98,20.98l-10.19-9.47L122.88,0l-9.05,35.78l-10.02-9.53l-6.6,7.21 c4.84,5.75,7.74,13.17,7.74,21.28h0.02v0.01h-0.02c0,9.14-3.69,17.41-9.67,23.38c-5.98,5.97-14.24,9.67-23.38,9.67v0.01h0V87.8 c-7.48,0-14.36-2.48-19.89-6.65c-4.31,3.1-9.41,5.18-14.94,5.89v10.26l14.55,0c2.34,0,4.23,1.9,4.23,4.23 c0,2.34-1.9,4.24-4.23,4.24H37.08v7.51c0,1.9-1.89,3.43-4.23,3.43c-2.34,0-4.24-1.54-4.24-3.43v-7.51H14.06 c-2.34,0-4.23-1.9-4.23-4.24c0-2.34,1.9-4.23,4.23-4.23l14.55,0V87.04c-7.38-0.95-13.99-4.34-18.99-9.33 c-5.93-5.93-9.6-14.14-9.6-23.22H0v-0.01h0.02c0-9.08,3.67-17.28,9.6-23.22c5.93-5.93,14.14-9.6,23.21-9.6v-0.02l0.01,0v0.02 c7.21,0,13.95,2.42,19.42,6.48c5.49-4.05,12.28-6.45,19.65-6.45L71.91,21.68L71.91,21.68L71.91,21.68z M45.86,75.1 c-4.38-5.61-7-12.66-7-20.35h-0.01v-0.01h0.01c0-7.84,2.73-15.04,7.27-20.7c-3.82-2.49-8.39-3.94-13.28-3.94v0.02l-0.01,0v-0.02 c-6.71,0-12.81,2.73-17.23,7.15c-4.42,4.42-7.15,10.51-7.15,17.23l0.01,0v0.01H8.45c0,6.72,2.73,12.81,7.15,17.23 c4.42,4.42,10.51,7.16,17.23,7.16v-0.02l0.01,0v0.02C37.62,78.88,42.09,77.49,45.86,75.1L45.86,75.1L45.86,75.1z M58.5,34.19 c4.47,5.61,7.16,12.68,7.16,20.3l0.02,0v0.01h-0.02c0,7.86-2.75,15.06-7.33,20.69c3.89,2.6,8.56,4.12,13.58,4.12v-0.02h0v0.02 c6.76,0,12.89-2.75,17.35-7.21c4.45-4.45,7.21-10.58,7.21-17.35h-0.02v-0.01h0.02c0-6.76-2.76-12.9-7.2-17.34 c-4.46-4.45-10.59-7.21-17.36-7.21v0.02v-0.02C66.96,30.19,62.36,31.66,58.5,34.19L58.5,34.19L58.5,34.19z M52.18,69.33 c3.17-4.12,5.05-9.26,5.05-14.84h-0.02v-0.01h0.02c0-5.46-1.81-10.52-4.86-14.59c-3.15,4.13-5.02,9.28-5.02,14.84l0.02,0v0.01 h-0.02C47.35,60.21,49.15,65.25,52.18,69.33L52.18,69.33L52.18,69.33z"/></g></svg>